<?xml version="1.0" encoding="utf-8"?>
<!-- Generator: Adobe Illustrator 16.0.0, SVG Export Plug-In . SVG Version: 6.00 Build 0)  -->
<!DOCTYPE svg PUBLIC "-//W3C//DTD SVG 1.1//EN" "http://www.w3.org/Graphics/SVG/1.1/DTD/svg11.dtd">
<svg version="1.1" id="Layer_1" xmlns="http://www.w3.org/2000/svg" xmlns:xlink="http://www.w3.org/1999/xlink" x="0px" y="0px"
	 width="668.984px" height="80.754px" viewBox="0 0 668.984 80.754" enable-background="new 0 0 668.984 80.754"
	 xml:space="preserve">
<g>
	<path fill="#424143" d="M210.805,62.913c3.105,3.807,6.51,6.311,12.019,6.311c4.908,0,10.317-2.104,10.317-7.211
		c0-5.008-5.008-6.311-10.016-7.412c-8.914-2.003-16.526-3.906-16.526-13.622c0-9.115,8.813-13.822,17.527-13.822
		c6.611,0,12.72,2.504,15.925,8.513l-6.51,4.307c-2.003-3.306-5.309-5.608-9.916-5.608c-4.307,0-9.215,2.103-9.215,6.51
		c0,3.906,5.609,5.608,11.819,6.811c8.313,1.603,15.324,4.607,15.324,14.022c0,10.616-9.415,14.723-18.73,14.723
		c-7.912,0-13.621-2.103-18.229-8.714L210.805,62.913z"/>
	<path fill="#424143" d="M294.332,66.719c-5.508,7.111-12.118,9.715-20.832,9.715c-14.723,0-23.738-11.017-23.738-24.639
		c0-14.523,10.216-24.639,24.038-24.639c13.221,0,22.235,9.014,22.235,24.539V54.2h-37.859c0.601,8.112,6.811,15.023,15.324,15.023
		c6.71,0,11.218-2.404,14.924-7.111L294.332,66.719z M287.622,47.588c-0.3-7.912-5.509-13.22-14.122-13.22
		c-8.614,0-14.323,5.308-15.324,13.22H287.622z"/>
	<path fill="#424143" d="M308.149,39.477c0-4.307-0.401-8.013-0.401-11.118h7.412c0,2.504,0.2,5.108,0.2,7.712h0.201
		c2.103-4.607,7.912-8.914,15.625-8.914c12.319,0,17.828,7.813,17.828,19.13v28.946H341.2V47.088c0-7.813-3.406-12.72-10.717-12.72
		c-10.115,0-14.523,7.312-14.523,18.028v22.836h-7.811V39.477z"/>
	<path fill="#424143" d="M389.471,34.969h-13.821v23.437c0,6.01,0.1,10.817,7.011,10.817c2.304,0,4.809-0.501,6.911-1.603
		l0.301,7.111c-2.704,1.202-6.21,1.702-9.114,1.702c-11.118,0-12.921-6.009-12.921-15.725v-25.74H357.62v-6.611h10.217V15.038h7.813
		v13.321h13.821V34.969z"/>
	<path fill="#424143" d="M403.689,4.32c3.205,0,5.709,2.604,5.709,5.709c0,3.306-2.403,5.709-5.709,5.709
		c-3.305,0-5.709-2.404-5.709-5.709C397.98,6.925,400.484,4.32,403.689,4.32z M399.783,28.358h7.813v46.875h-7.813V28.358z"/>
	<path fill="#424143" d="M464.982,66.719c-5.509,7.111-12.118,9.715-20.832,9.715c-14.724,0-23.738-11.017-23.738-24.639
		c0-14.523,10.216-24.639,24.039-24.639c13.22,0,22.234,9.014,22.234,24.539V54.2h-37.859c0.601,8.112,6.81,15.023,15.324,15.023
		c6.711,0,11.217-2.404,14.924-7.111L464.982,66.719z M458.272,47.588c-0.301-7.912-5.509-13.22-14.122-13.22
		c-8.614,0-14.323,5.308-15.324,13.22H458.272z"/>
	<path fill="#424143" d="M478.799,39.477c0-4.307-0.4-8.013-0.4-11.118h7.411c0,2.504,0.201,5.108,0.201,7.712h0.2
		c2.104-4.607,7.912-8.914,15.625-8.914c12.319,0,17.828,7.813,17.828,19.13v28.946h-7.813V47.088c0-7.813-3.406-12.72-10.717-12.72
		c-10.117,0-14.523,7.312-14.523,18.028v22.836h-7.813V39.477z"/>
	<path fill="#424143" d="M560.121,34.969H546.3v23.437c0,6.01,0.101,10.817,7.012,10.817c2.304,0,4.808-0.501,6.911-1.603l0.3,7.111
		c-2.703,1.202-6.209,1.702-9.113,1.702c-11.119,0-12.922-6.009-12.922-15.725v-25.74h-10.216v-6.611h10.216V15.038h7.813v13.321
		h13.821V34.969z"/>
	<path fill="#424143" d="M582.253,69.824c0,3.306-2.905,6.01-6.009,6.01c-3.105,0-6.011-2.704-6.011-6.01
		c0-3.305,2.704-6.009,6.011-6.009C579.549,63.815,582.253,66.519,582.253,69.824z"/>
	<path fill="#424143" d="M602.182,4.32c3.205,0,5.71,2.604,5.71,5.709c0,3.306-2.403,5.709-5.71,5.709
		c-3.305,0-5.708-2.404-5.708-5.709C596.474,6.925,598.978,4.32,602.182,4.32z M598.276,28.358h7.813v46.875h-7.813V28.358z"/>
	<path fill="#424143" d="M643.944,27.157c14.424,0,25.04,10.016,25.04,24.639c0,14.624-10.616,24.639-25.04,24.639
		c-14.422,0-25.039-10.015-25.039-24.639C618.905,37.173,629.522,27.157,643.944,27.157z M643.944,69.223
		c10.117,0,16.627-7.612,16.627-17.428s-6.51-17.427-16.627-17.427c-10.116,0-16.626,7.611-16.626,17.427
		S633.828,69.223,643.944,69.223z"/>
</g>
<g>
	<polygon opacity="0.5" fill="#8EAF04" points="94.485,80.754 25.037,61.242 94.485,41.729 163.934,61.242 	"/>
	<polygon opacity="0.5" fill="#975903" points="69.448,57.803 0,38.291 69.448,18.778 138.896,38.291 	"/>
	<polygon fill="#A00202" points="94.485,39.025 25.037,19.513 94.485,0 163.934,19.513 	"/>
</g>
</svg>
